<svg id="baseline-account_circle-24px" xmlns="http://www.w3.org/2000/svg" viewBox="0 0 8 8">
  <defs>
    <style>
      .cls-1 {
        fill: #c9d0d6;
      }

      .cls-2 {
        fill: none;
      }
    </style>
  </defs>
  <path id="Path_2" data-name="Path 2" class="cls-1" d="M5.333,2A3.333,3.333,0,1,0,8.667,5.333,3.335,3.335,0,0,0,5.333,2Zm0,1a1,1,0,1,1-1,1A1,1,0,0,1,5.333,3Zm0,4.733a2.4,2.4,0,0,1-2-1.073c.01-.663,1.333-1.027,2-1.027s1.99.363,2,1.027A2.4,2.4,0,0,1,5.333,7.733Z" transform="translate(-1.333 -1.333)"/>
  <path id="Path_3" data-name="Path 3" class="cls-2" d="M0,0H8V8H0Z"/>
</svg>
